<svg xmlns="http://www.w3.org/2000/svg" viewBox="0 0 48 48" fill="none">
  <!-- Background -->
  <rect width="48" height="48" rx="12" fill="#3B82F6"/>
  <!-- Building / Tower shape -->
  <rect x="18" y="14" width="12" height="22" rx="1.5" fill="white" opacity="0.2"/>
  <rect x="20" y="16" width="8" height="18" rx="1" fill="white" opacity="0.9"/>
  <!-- Windows -->
  <rect x="21.5" y="18" width="2" height="2" rx="0.4" fill="#3B82F6"/>
  <rect x="24.5" y="18" width="2" height="2" rx="0.4" fill="#3B82F6"/>
  <rect x="21.5" y="22" width="2" height="2" rx="0.4" fill="#3B82F6"/>
  <rect x="24.5" y="22" width="2" height="2" rx="0.4" fill="#3B82F6"/>
  <rect x="21.5" y="26" width="2" height="2" rx="0.4" fill="#3B82F6"/>
  <rect x="24.5" y="26" width="2" height="2" rx="0.4" fill="#3B82F6"/>
  <!-- Door -->
  <rect x="22.5" y="30" width="3" height="4" rx="0.5" fill="#3B82F6"/>
  <!-- Roof / Triangle peak -->
  <path d="M24 9L30 15H18L24 9Z" fill="white"/>
  <!-- Ground line -->
  <rect x="14" y="34" width="20" height="1.5" rx="0.75" fill="white" opacity="0.5"/>
</svg>
